<svg width="100%" height="100%" viewBox="0 0 184 178" style="fill-rule:evenodd;clip-rule:evenodd;stroke-miterlimit:10;"><path d="M161.705,88.927c0,-36.948 -29.953,-66.901 -66.902,-66.901l0,67.167l47.171,47.171c12.184,-12.118 19.731,-28.895 19.731,-47.437" style="fill:#a8c8ea;fill-rule:nonzero;"/><path d="M94.711,22.085c-36.949,0 -66.902,29.953 -66.902,66.902l66.902,0l0,-66.902Z" style="fill:#509fd7;fill-rule:nonzero;"/><path d="M161.751,88.987c0,-36.924 -29.978,-66.902 -66.902,-66.902c-36.925,0 -66.902,29.978 -66.902,66.902c0,36.923 29.977,66.901 66.902,66.901c36.924,0 66.902,-29.978 66.902,-66.901Z" style="fill:none;stroke:#0f5388;stroke-width:4.39px;"/><path d="M94.849,22.085l0,66.902l-66.902,0" style="fill:none;stroke:#0f5388;stroke-width:4.39px;"/><path d="M47.554,136.281l94.589,-94.589" style="fill:none;stroke:#0f5388;stroke-width:4.39px;"/><path d="M129.595,31.873l-33.884,33.884" style="fill:none;stroke:#0f5388;stroke-width:4.39px;"/><path d="M151.896,54.174l-46.129,46.129" style="fill:none;stroke:#0f5388;stroke-width:4.39px;"/><path d="M113.731,24.839l-18.716,18.717" style="fill:none;stroke:#0f5388;stroke-width:4.39px;"/><path d="M158.731,69.839l-41.537,41.536" style="fill:none;stroke:#0f5388;stroke-width:4.39px;"/><path d="M161.32,90.148l-32.37,32.369" style="fill:none;stroke:#0f5388;stroke-width:4.39px;"/><path d="M44.17,133.374c0,2.88 -2.334,5.214 -5.214,5.214c-2.879,0 -5.214,-2.334 -5.214,-5.214c0,-2.88 2.335,-5.214 5.214,-5.214c2.88,0 5.214,2.334 5.214,5.214" style="fill:#fff;fill-rule:nonzero;"/><path d="M34.859,162.186c-18.009,0 -32.661,-14.652 -32.661,-32.661c0,-18.009 14.652,-32.661 32.661,-32.661c18.009,0 32.66,14.652 32.66,32.661c0,18.009 -14.651,32.661 -32.66,32.661" style="fill:#a8c8ea;fill-rule:nonzero;"/><path d="M34.858,94.667c-19.252,0 -34.858,15.607 -34.858,34.858c0,19.252 15.606,34.859 34.858,34.859c19.252,0 34.858,-15.607 34.858,-34.859c0,-19.251 -15.606,-34.858 -34.858,-34.858m0,4.396c16.798,0 30.463,13.666 30.463,30.462c0,16.798 -13.665,30.463 -30.463,30.463c-16.797,0 -30.463,-13.665 -30.463,-30.463c0,-16.796 13.666,-30.462 30.463,-30.462" style="fill:#0f5388;fill-rule:nonzero;"/><path d="M40.388,135.281l-22.184,11.092l11.092,-22.184l22.184,-11.092l-11.092,22.184Z" style="fill:#fff;fill-rule:nonzero;stroke:#0f5388;stroke-width:3.56px;stroke-linecap:round;stroke-linejoin:round;"/><path d="M40.388,135.281l-11.092,-11.092l22.184,-11.092l-11.092,22.184Z" style="fill:#0f5388;fill-rule:nonzero;stroke:#0f5388;stroke-width:3.56px;stroke-linejoin:round;"/><path d="M34.775,134.719c-1.313,0 -2.548,-0.511 -3.477,-1.439c-1.917,-1.918 -1.917,-5.038 -0.001,-6.955c0.93,-0.929 2.165,-1.44 3.478,-1.44c1.313,0 2.548,0.511 3.477,1.439c1.917,1.918 1.917,5.038 0.001,6.955c-0.93,0.929 -2.165,1.44 -3.478,1.44" style="fill:#fff;fill-rule:nonzero;"/><path d="M34.775,123.105c-1.789,0 -3.471,0.697 -4.736,1.962c-1.265,1.265 -1.962,2.946 -1.962,4.735c0,1.789 0.697,3.471 1.962,4.737c1.265,1.264 2.947,1.961 4.736,1.961c1.789,0 3.471,-0.697 4.735,-1.961c1.266,-1.266 1.962,-2.948 1.962,-4.737c0,-1.789 -0.696,-3.47 -1.962,-4.735c-1.264,-1.265 -2.946,-1.962 -4.735,-1.962m0,3.561c0.803,0 1.605,0.306 2.218,0.918c1.225,1.225 1.225,3.211 0,4.437c-0.613,0.612 -1.415,0.919 -2.218,0.919c-0.803,0 -1.606,-0.307 -2.219,-0.919c-1.224,-1.226 -1.224,-3.212 0,-4.437c0.613,-0.612 1.416,-0.918 2.219,-0.918" style="fill:#0f5388;fill-rule:nonzero;"/><path d="M34.858,153.34l-3.873,9.371l7.746,0l-3.873,-9.371Z" style="fill:#0f5388;fill-rule:nonzero;"/><path d="M34.858,105.711l3.873,-9.37l-7.746,0l3.873,9.37Z" style="fill:#0f5388;fill-rule:nonzero;"/><path d="M58.672,129.525l9.371,3.873l0,-7.746l-9.371,3.873Z" style="fill:#0f5388;fill-rule:nonzero;"/><path d="M11.044,129.525l-9.37,-3.873l0,7.746l9.37,-3.873Z" style="fill:#0f5388;fill-rule:nonzero;"/><path d="M40.797,90.794c0,-3.279 -2.659,-5.938 -5.939,-5.938c-3.28,0 -5.939,2.659 -5.939,5.938c0,3.28 2.659,5.939 5.939,5.939c3.28,0 5.939,-2.659 5.939,-5.939" style="fill:#fff;fill-rule:nonzero;"/><path d="M40.797,90.794c0,-3.277 -2.661,-5.938 -5.939,-5.938c-3.277,0 -5.939,2.661 -5.939,5.938c0,3.278 2.662,5.939 5.939,5.939c3.278,0 5.939,-2.661 5.939,-5.939Z" style="fill:none;stroke:#0f5388;stroke-width:4.39px;stroke-linecap:round;stroke-linejoin:round;"/></svg>