<?xml version="1.0" encoding="UTF-8" standalone="no"?><!DOCTYPE svg PUBLIC "-//W3C//DTD SVG 1.1//EN" "http://www.w3.org/Graphics/SVG/1.1/DTD/svg11.dtd"><svg width="100%" height="100%" viewBox="0 0 159 161" version="1.1" xmlns="http://www.w3.org/2000/svg" xmlns:xlink="http://www.w3.org/1999/xlink" xml:space="preserve" xmlns:serif="http://www.serif.com/" style="fill-rule:evenodd;clip-rule:evenodd;stroke-linecap:round;stroke-linejoin:round;stroke-miterlimit:10;"><path d="M141.573,105.866l0,-57.782l-7.393,-8.191l-36.377,35.664l-14.733,-12.977l-27.886,26.411l-15.989,-11.65l-14.125,12.76l-0.504,15.87l18.747,3.201l76.713,9.036l21.547,-12.342Z" style="fill:#a8c8ea;fill-rule:nonzero;"/><path d="M113.772,121.142l0,-60.072" style="fill:none;stroke:#0f5388;stroke-width:4.79px;"/><path d="M83.07,121.142l0,-56.75" style="fill:none;stroke:#0f5388;stroke-width:4.79px;"/><path d="M54.077,121.142l0,-31.382" style="fill:none;stroke:#0f5388;stroke-width:4.79px;"/><path d="M24.566,105.972l0,-16.211" style="fill:none;stroke:#0f5388;stroke-width:4.79px;"/><path d="M39.494,74.66l-22.844,22.639l-14.256,-14.731l36.8,-36.571l14.256,14.73l-0.026,0.078l29.687,-29.533l14.256,14.731l22.616,-22.228l-11.255,-10.86l47.73,-10.521l-10.511,47.453l-11.708,-11.341l-36.481,35.957l-14.256,-14.731l-29.752,29.658l-14.256,-14.73" style="fill:#509fd7;fill-rule:nonzero;stroke:#0f5388;stroke-width:4.79px;"/><path d="M143.957,105.866l0,-59.315" style="fill:none;stroke:#0f5388;stroke-width:4.79px;"/><path d="M12.667,140.399l16.646,0c0.698,0 1.391,0.102 2.058,0.304l56.94,17.195c2.877,0.868 5.991,0.392 8.476,-1.298l53.37,-36.282c3.584,-2.481 4.542,-7.363 2.161,-11.014c-2.275,-3.488 -6.838,-4.665 -10.515,-2.71l-21.777,11.614" style="fill:none;stroke:#0f5388;stroke-width:4.79px;"/><path d="M7.206,105.971l21.153,0c0,0 7.674,-5.599 21.57,-5.599c13.894,0 21.983,8.295 25.923,11.614l33.909,0c4.753,0 8.606,3.853 8.606,8.606c0,4.754 -3.853,8.608 -8.606,8.608l-43.449,0" style="fill:#fff;fill-rule:nonzero;stroke:#0f5388;stroke-width:4.79px;"/></svg>