<?xml version="1.0" encoding="UTF-8" standalone="no"?><!DOCTYPE svg PUBLIC "-//W3C//DTD SVG 1.1//EN" "http://www.w3.org/Graphics/SVG/1.1/DTD/svg11.dtd"><svg width="100%" height="100%" viewBox="0 0 210 183" version="1.1" xmlns="http://www.w3.org/2000/svg" xmlns:xlink="http://www.w3.org/1999/xlink" xml:space="preserve" xmlns:serif="http://www.serif.com/" style="fill-rule:evenodd;clip-rule:evenodd;stroke-miterlimit:10;"><path d="M99.62,79.693c0,7.477 -16.915,13.538 -37.78,13.538c-20.866,0 -37.781,-6.061 -37.781,-13.538c0,-7.478 16.915,-13.538 37.781,-13.538c20.865,0 37.78,6.06 37.78,13.538" style="fill:#fff;fill-rule:nonzero;"/><path d="M99.62,79.693c0,-7.472 -16.928,-13.538 -37.78,-13.538c-20.852,0 -37.781,6.066 -37.781,13.538c0,7.472 16.929,13.538 37.781,13.538c20.852,0 37.78,-6.066 37.78,-13.538Z" style="fill:none;stroke:#0f5388;stroke-width:4.79px;"/><path d="M99.62,79.693c0,7.477 -16.915,13.538 -37.78,13.538c-20.866,0 -37.781,-6.061 -37.781,-13.538l0,49.257c0,7.476 16.915,13.538 37.781,13.538c20.865,0 37.78,-6.062 37.78,-13.538l0,-49.257Z" style="fill:#a8c8ea;fill-rule:nonzero;stroke:#0f5388;stroke-width:4.79px;"/><path d="M99.62,95.68c0,7.477 -16.915,13.538 -37.78,13.538c-20.866,0 -37.781,-6.061 -37.781,-13.538" style="fill:none;stroke:#0f5388;stroke-width:4.79px;"/><path d="M99.62,112.963c0,7.478 -16.915,13.538 -37.78,13.538c-20.866,0 -37.781,-6.06 -37.781,-13.538" style="fill:none;stroke:#0f5388;stroke-width:4.79px;"/><path d="M185.398,79.693c0,7.477 -16.914,13.538 -37.78,13.538c-20.866,0 -37.781,-6.061 -37.781,-13.538c0,-7.478 16.915,-13.538 37.781,-13.538c20.866,0 37.78,6.06 37.78,13.538" style="fill:#fff;fill-rule:nonzero;"/><path d="M185.398,79.693c0,-7.472 -16.929,-13.538 -37.781,-13.538c-20.851,0 -37.78,6.066 -37.78,13.538c0,7.472 16.929,13.538 37.78,13.538c20.852,0 37.781,-6.066 37.781,-13.538Z" style="fill:none;stroke:#0f5388;stroke-width:4.79px;"/><path d="M185.398,79.693c0,7.477 -16.914,13.538 -37.78,13.538c-20.866,0 -37.781,-6.061 -37.781,-13.538l0,49.257c0,7.476 16.915,13.538 37.781,13.538c20.866,0 37.78,-6.062 37.78,-13.538l0,-49.257Z" style="fill:#a8c8ea;fill-rule:nonzero;stroke:#0f5388;stroke-width:4.79px;"/><path d="M185.398,95.68c0,7.477 -16.914,13.538 -37.78,13.538c-20.866,0 -37.781,-6.061 -37.781,-13.538" style="fill:none;stroke:#0f5388;stroke-width:4.79px;"/><path d="M185.398,112.963c0,7.478 -16.914,13.538 -37.78,13.538c-20.866,0 -37.781,-6.06 -37.781,-13.538" style="fill:none;stroke:#0f5388;stroke-width:4.79px;"/><path d="M142.334,112.963c0,7.478 -16.915,13.538 -37.78,13.538c-20.866,0 -37.781,-6.06 -37.781,-13.538c0,-7.477 16.915,-13.538 37.781,-13.538c20.865,0 37.78,6.061 37.78,13.538" style="fill:#fff;fill-rule:nonzero;"/><path d="M142.334,112.963c0,-7.472 -16.929,-13.538 -37.78,-13.538c-20.852,0 -37.781,6.066 -37.781,13.538c0,7.472 16.929,13.538 37.781,13.538c20.851,0 37.78,-6.066 37.78,-13.538Z" style="fill:none;stroke:#0f5388;stroke-width:4.79px;"/><path d="M142.334,112.963c0,7.478 -16.915,13.538 -37.78,13.538c-20.866,0 -37.781,-6.06 -37.781,-13.538l0,31.974c0,7.476 16.915,13.538 37.781,13.538c20.865,0 37.78,-6.062 37.78,-13.538l0,-31.974Z" style="fill:#a8c8ea;fill-rule:nonzero;stroke:#0f5388;stroke-width:4.79px;"/><path d="M142.334,128.95c0,7.477 -16.915,13.538 -37.78,13.538c-20.866,0 -37.781,-6.061 -37.781,-13.538" style="fill:none;stroke:#0f5388;stroke-width:4.79px;"/><path d="M114.968,30.494l0,-28.1l-20.778,0l0,28.1l-17.947,0l28.1,30.696l28.099,-30.696l-17.474,0Z" style="fill:#509fd7;fill-rule:nonzero;stroke:#0f5388;stroke-width:4.79px;stroke-linecap:round;stroke-linejoin:round;"/></svg>