<?xml version="1.0" encoding="UTF-8" standalone="no"?><!DOCTYPE svg PUBLIC "-//W3C//DTD SVG 1.1//EN" "http://www.w3.org/Graphics/SVG/1.1/DTD/svg11.dtd"><svg width="100%" height="100%" viewBox="0 0 148 177" version="1.1" xmlns="http://www.w3.org/2000/svg" xmlns:xlink="http://www.w3.org/1999/xlink" xml:space="preserve" xmlns:serif="http://www.serif.com/" style="fill-rule:evenodd;clip-rule:evenodd;stroke-linecap:round;stroke-linejoin:round;stroke-miterlimit:10;"><path d="M144.351,153.498c0,11.322 -24.508,20.5 -54.739,20.5c-30.232,0 -54.739,-9.178 -54.739,-20.5c0,-11.322 24.507,-20.501 54.739,-20.501c30.231,0 54.739,9.179 54.739,20.501" style="fill:#509fd7;fill-rule:nonzero;"/><path d="M144.351,153.498c0,-11.315 -24.528,-20.501 -54.739,-20.501c-30.211,0 -54.739,9.186 -54.739,20.501c0,11.314 24.528,20.5 54.739,20.5c30.211,0 54.739,-9.186 54.739,-20.5Z" style="fill:none;stroke:#0f5388;stroke-width:4.79px;"/><path d="M53.507,38.783c0,8.132 -6.592,14.724 -14.724,14.724c-8.131,0 -14.724,-6.592 -14.724,-14.724c0,-8.132 6.593,-14.724 14.724,-14.724c8.132,0 14.724,6.592 14.724,14.724" style="fill:#fff;fill-rule:nonzero;"/><path d="M53.507,38.783c0,-8.126 -6.597,-14.724 -14.724,-14.724c-8.126,0 -14.724,6.598 -14.724,14.724c0,8.127 6.598,14.724 14.724,14.724c8.127,0 14.724,-6.597 14.724,-14.724Z" style="fill:none;stroke:#0f5388;stroke-width:4.79px;stroke-linecap:butt;stroke-linejoin:miter;"/><path d="M19.445,76.649l0,79.809l35.295,0l0,-80.108l29.659,-25.274c3.593,-2.747 2.887,-7.174 0.47,-9.246c-2.511,-2.152 -5.612,-1.322 -8.427,0.678l-38.872,26.486l-15.729,-14.325c-6.905,2.959 -13.915,3.592 -13.915,15.639l-0.528,29.055c0,5.333 4.323,9.656 9.656,9.656l1.757,0" style="fill:#a8c8ea;fill-rule:nonzero;stroke:#0f5388;stroke-width:4.79px;"/><path d="M36.776,107.751l0,48.494" style="fill:none;stroke:#0f5388;stroke-width:4.79px;"/><path d="M91.497,22.262l0,33.252c9.3,-6.763 20.008,-2.536 25.926,-0.846c5.917,1.692 20.289,6.764 28.179,-0.281l0,-32.125c-10.145,4.791 -19.726,2.255 -27.052,0c-7.327,-2.254 -15.781,-6.199 -27.053,0Z" style="fill:#fff;fill-rule:nonzero;stroke:#0f5388;stroke-width:4.79px;"/><path d="M87.006,19.022l0,132.574c0,2.466 4.509,2.396 4.509,0l0,-132.574c0,-2.607 -4.509,-2.466 -4.509,0Z" style="fill:#fff;fill-rule:nonzero;stroke:#0f5388;stroke-width:3.25px;"/></svg>